<svg width="718" height="933" viewBox="0 0 718 933" fill="none" xmlns="http://www.w3.org/2000/svg">
<path d="M277 422V424L283 430V431L295 443H296L307 454H308L313 459H314L319 464H320L323 467H324L328 471H329L332 474H333L335 476H336L338 478H339L341 480H342L344 482H345L347 484H348L349 485H350L352 487H353L355 489H356L357 490H358L360 492H361L362 493H363L365 495H366L367 496H368L369 497H370L371 498H372L373 499H374L375 500H376L377 501H378L379 502H380L382 504H383L384 505H385L386 506H387L388 507H389L390 508H391L392 509H393L394 510H396L397 511H398L399 512H400L401 513H402L403 514H405L406 515H407L408 516H409L410 517H411L412 518H414L415 519H416L417 520H419L420 521H421L422 522H423L424 523H426L427 524H428L429 525H431L432 526H433L434 527H436L437 528H439L440 529H442L443 530H444L445 531H447L448 532H450L451 533H453L454 534H456L457 535H459L460 536H462L463 537H466L467 538H469L470 539H472L473 540H475L476 541H478L479 542H481L482 543H485L486 544H488L489 545H491L492 546H495L496 547H498L499 548H502L503 549H506L507 550H509L510 551H513L514 552H517L518 553H521L522 554H525L526 555H529L530 556H533L534 557H538L539 558H542L543 559H546L547 560H551L552 561H555L556 562H560L561 563H564L565 564H570L571 565H574L575 566H581L582 567H586L587 568H591L592 569H598L599 570H604L605 571H610L611 572H617L618 573H624L625 574H631L632 575H639L640 576H647L648 577H657L658 578H663H662L661 577H660L659 576H657L656 575H655L654 574H653L652 573H650L649 572H648L647 571H646L645 570H643L642 569H641L640 568H639L638 567H636L635 566H634L633 565H631L630 564H629L628 563H627L626 562H625L624 561H622L621 560H620L619 559H617L616 558H615L614 557H613L612 556H610L609 555H608L607 554H606L605 553H604L603 552H601L600 551H599L598 550H597L596 549H594L593 548H592L591 547H590L589 546H587L586 545H585L584 544H583L582 543H580L579 542H578L577 541H575L574 540H573L572 539H571L570 538H568L567 537H566L565 536H564L563 535H561L560 534H559L558 533H557L556 532H554L553 531H552L551 530H550L549 529H547L546 528H545L544 527H543L542 526H540L539 525H538L537 524H535L534 523H533L532 522H531L530 521H528L527 520H526L525 519H524L523 518H521L520 517H519L518 516H517L516 515H514L513 514H512L511 513H510L509 512H507L506 511H505L504 510H502L501 509H500L499 508H497L496 507H495L494 506H492L491 505H490L489 504H487L486 503H485L484 502H483L482 501H480L479 500H478L477 499H475L474 498H473L472 497H471L470 496H468L467 495H466L465 494H463L462 493H461L460 492H458L457 491H456L455 490H453L452 489H451L450 488H448L447 487H446L445 486H443L442 485H441L440 484H438L437 483H436L435 482H433L432 481H431L430 480H429L428 479H426L425 478H424L423 477H421L420 476H419L418 475H416L415 474H414L413 473H411L410 472H409L408 471H406L405 470H404L403 469H401L400 468H398L397 467H396L395 466H393L392 465H391L390 464H388L387 463H386L385 462H383L382 461H380L379 460H378L377 459H375L374 458H373L372 457H370L369 456H368L367 455H365L364 454H362L361 453H359L358 452H357L356 451H354L353 450H351L350 449H349L348 448H346L345 447H343L342 446H341L340 445H338L337 444H336L335 443H333L332 442H331L330 441H328L327 440H325L324 439H322L321 438H320L319 437H317L316 436H314L313 435H311L310 434H309L308 433H306L305 432H303L302 431H300L299 430H297L296 429H295L294 428H292L291 427H289L288 426H287L286 425H284L283 424H281L280 423H278L277 422Z" fill="url(#paint0_linear_2015_280)"/>
<path d="M141 328L140 329H139L137 331V332L136 333V334L135 335V336L134 337V340L133 341V344L132 345V350L131 351V371L132 372V378L133 379V383L134 384V386L135 387V389L136 390V391L137 392V394L138 395V396L140 398V399L141 400V401L143 403V404L146 407V408L152 414H153L156 417H157L159 419H160L161 420H162L163 421H164L165 422H166L167 423H169L170 424H172L173 425H177L178 426H198L199 425H203L204 424H208L209 423H211L212 422H214L215 421H217L218 420H220L221 419H222L223 418H224L225 417H227L229 415H230L231 414H232L233 413H234L235 412H236L237 411H238L239 410H240L242 408H243L244 407H245L246 406H247L248 405L247 404H245L244 403H243L242 402H240L239 401H237L236 400H235L234 399H232L231 398H229L228 397H227L226 396H224L223 395H222L221 394H220L219 393H217L215 391H213L212 390H211L209 388H208L207 387H206L204 385H203L202 384H201L199 382H198L196 380H195L193 378H192L188 374H187L181 368H180L171 359V358L165 352V351L160 346V345L156 341V340L151 335V334L149 332H148L145 329H144L143 328H141Z" fill="url(#paint1_linear_2015_280)"/>
<path d="M530.5 316.5H518L507 317L502.5 317.5L498 318L494 318.5L491 319L488 319.5L484.5 320L481.5 320.5L479 321L476 321.5L473 322L470.5 322.5L467.5 323L465 323.5L462 324L459.5 324.5L457 325L455 325.5L453 326L450.5 326.5L448 327L446 327.5L444 328L442 328.5L440 329L438 329.5L436 330L434 330.5L432 331L430 331.5L428 332L426 332.5L424.5 333L423 333.5L421 334L419.5 334.5L418 335L416.5 335.5L415 336L413.5 336.5L412 337L410.5 337.5L409 338L407.5 338.5L406 339L404 339.5L402.5 340L401 340.5L399.5 341L398 341.5L396 342.5L394.5 343L393.5 343.5L392 344L390.5 344.5L389 345L388 345.5L387 346L385.5 346.5L384 347L382.5 347.5L381 348L380 348.5L378.5 349L377.5 349.5L376 350L375 350.5L374 351L372.5 351.5L371 352H370L369 353H368L367 354H365L364 355H363L362 356H361L360 357H359L358 358H356L355 359H354L353 360H352L351 361H350L349 362H348L347 363H346L345 364H344L343 365H342L341 366H340L339 367H338L337 368H336L335 369H334L333 370H332L331 371H330L328 373H327L326 374H325L324 375H323L321 377H320L319 378H318L316 380H315L314 381H313L311 383H310L308 385H307L305 387H304L302.5 388L301 389L300 390L298 391.5L296 393L294 394.5L291.5 396.5L288.5 399L285.5 401.5L282 404L280 405H296L307 405.5L318 406L339 407H359L370.5 406.5L378 406L385 405.5L390 405L396 404.5L401 404L405.5 403.5L410 403L413.5 402.5L417 402L421 401.5L424 401L428 400.5L431.5 400L435 399.5L438 399L440.5 398.5L443 398L445.5 397.5L448 397L450.5 396.5L453 396L455.5 395.5L458 395L460.5 394.5L463 394L465 393.5L467 393L469 392.5L471 392L473 391.5L475 391L477 390.5L479 390L481 389.5L483 389L485 388.5L487 388L488.5 387.5L490 387L492 386.5L494 386L495.5 385.5L497 385L499 384.5L501 384L502.5 383.5L504 383L506 382.5L507.5 382L509 381.5L510.5 381L512 380.5L513.5 380L515 379.5L516 379L517.5 378.5L519 378L520.5 377.5L521.5 377L523 376.5L524.5 376L526 375.5L527.5 375L528.5 374.5L530 374L531 373.5L532 373L533 372.5L534.5 372L535.5 371.5L537 371L538 370.5L539 370L540 369.5L541 369L543 368L544 367.5L545 367L546 366.5L547 366L548 365.5L549 365L550 364.5L551 364L552 363.5L553 363L554 362.5L555 362L556 361.5L557 361L558 360.5L559 360L560 359.5L561 359L563 358L564 357.5L565 357L566.5 356L568 355L569.5 354L571 353L572.5 352L574 351L586 339L587 337.5L588 336L588.5 335L589 334L589.5 332.5L590 331V330L589.5 328.5L588.5 326.5L587 325L586.5 324.5L586 324L584.5 323L582.5 322L581.5 321.5L580 321L578.5 320.5L577 320L575 319.5L573 319L570 318.5L567 318L562 317.5L557 317L542 316.5H530.5Z" fill="url(#paint2_linear_2015_280)"/>
<path d="M380 0.760132L379 1.26013L378 1.76013L377 2.26013L376 2.76013L375 3.26013L374 3.76013L373 4.26013L372 4.76013L370.5 5.76013L369 6.76013L367.5 7.76013L366 8.76013L364 10.2601L362 11.7601L360 13.2601L358 14.7601L354 18.2601L350 21.7601L341 30.7601L337 35.2601L332 40.7601L330 43.2601L327 46.7601L325.5 48.7601L324 50.7601L322.5 52.7601L321 54.7601L319.5 56.7601L318 58.7601L316.5 60.7601L315 62.7601L314 64.2601L313 65.7601L312 67.2601L311 68.7601L310 70.2601L309 71.7601L308 73.2601L307 74.7601L306 76.2601L305 77.7601L304 79.2601L303 80.7601L302.5 81.7601L301.5 83.2601L301 83.7601L300 85.2601L299 86.7601L298 88.2601L297 89.7601L296.5 90.7601L296 91.7601L295.5 92.7601L295 93.7601L294 95.2601L293 96.7601L292.5 97.7601L292 98.7601L291.5 99.7601L291 100.76L290 102.26L289 103.76L288.5 104.76L288 105.76L287.5 106.76L287 107.76L286.5 108.76L286 109.76L285.5 110.76L285 111.76L284 113.26L283 114.76L282.5 115.76L282 116.76L281.5 117.76L281 118.76L280.5 119.76L280 120.76L279.5 121.76L279 122.76L278.5 123.76L278 124.76L277.5 125.76L277 126.76L276.5 127.76L276 128.76L275.5 129.76L275 130.76L274.5 132.26L274 133.76L273.5 134.76L273 135.76L272.5 136.76L272 137.76L271.5 139.26L271 140.76L270.5 141.76L270 142.76L269.5 143.76L269 144.76L268.5 145.76L268 146.76L267.5 148.26L267 149.76L266.5 150.76L266 151.76L265.5 152.76L265 153.76L264.5 154.76L264 155.76L263.5 157.26L263 158.76L262.5 159.76L262 160.76L261.5 162.26L261 163.76L260.5 165.26L260 166.76L259.5 167.76L259 168.76L258.5 170.26L258 171.76L257.5 173.26L257 174.76L256.5 176.76L256 178.76L255.5 180.26L255 181.76L254.5 183.26L254 184.76L253.5 186.26L253 187.76L252.5 189.26L252 190.76L251.5 192.76L251 194.76L250.5 196.26L250 197.76L249.5 199.26L249 200.76L248.5 202.76L248 204.76L247.5 206.26L247 207.76L246.5 209.76L246 211.76L245.5 213.76L245 215.76L244.5 217.76L244 219.76L243.5 222.26L243 223.76L242.5 226.26L242 228.76L241.5 231.26L241 233.76L240.5 237.26L240 239.76L239.5 242.76L239 245.76L238.5 249.26L238 252.76L237.5 257.26L237 261.76L236.5 267.26L236 272.76V306.76L236.5 313.26L237 318.76L237.5 321.76L238 324.76L238.5 328.26L239 331.76L239.5 334.26L240 336.76L240.5 339.26L241 341.76L241.5 343.76L242 345.76L242.5 348.26L243 350.76L243.5 352.26L244 353.76L244.5 355.26L245 356.76L245.5 358.26L246 359.76L246.5 361.26L247 362.76L247.5 364.26L248 365.76L248.5 366.76L249 367.76L249.5 368.76L250 369.76L250.5 371.26L251 372.76L251.5 373.76L252 374.76L252.5 375.76L253 376.76L253.5 378.26L254 379.5L254.5 380.76L255 381.76L255.5 382.76L256 383.76L256.5 384.76L257 385.76L257.5 386.76L258 387.76L258.5 388.76L259 389.76L260 391.76L260.5 392.76L261 393.76L262 392.76L264.5 390.5L267.5 388L270 385.76L273 383.5L276 380.76L279.5 378L283 374.76L290 368.5L294 365L299 360.5L302 357.76L308.5 351L314 344.76L316 342.5L318 339.76L320.5 337L323 333.76L324.5 332L326 329.76L327.5 328L329 325.76L330 324.5L331 322.76L332.5 321L334 318.76L335 317.5L336 315.76L336.5 315L337 313.76L338 312.5L339 310.76L339.5 310L340 308.76L341 307.5L342 305.76L343 304.5L344 302.76L344.5 302L345 300.76L346 299.5L347 297.76L347.5 297L348 295.76L348.5 295L349 293.76L349.5 293L350 291.76L351 290.5L352 288.76L353 286.76L353.5 286L354 284.76L354.5 284L355 282.76L355.5 282L356 280.76L356.5 280L357 278.76L357.5 278L358 276.76L358.5 276L359 274.76L359.5 274L360 272.76L360.5 272L361 270.76L361.5 270L362 268.76L362.5 268L363 266.76L363.5 265.5L364 263.76L364.5 263L365 261.76L365.5 261L366 259.76L366.5 258.5L367 256.76L367.5 256L368 254.76L368.5 253.5L369 251.76L370 249.76L370.5 248.5L371 246.76L371.5 246L372 244.76L372.5 243L373 241.76L373.5 241L374 239.76L374.5 238.26L375 236.76L375.5 235.26L376 233.76L376.5 232.26L377 230.76L377.5 229.26L378 227.76L378.5 226.76L379 225.76L379.5 224.26L380 222.76L380.5 220.76L381 218.76L381.5 217.26L382 215.76L382.5 214.26L383 212.76L383.5 211.26L384 209.76L384.5 208.26L385 206.76L385.5 205.26L386 203.76L386.5 201.76L387 199.76L387.5 198.26L388 196.76L388.5 195.26L389 192.76L389.5 190.76L390 188.76L390.5 186.26L391 184.76L391.5 182.76L392 180.76L392.5 179.26L393 176.76L393.5 174.76L394 171.76L394.5 170.26L395 167.76L395.5 165.26L396 162.76L396.5 160.76L397 158.76L397.5 156.26L398 153.76L398.5 151.26L399 148.76L399.5 146.26L400 143.76L400.5 140.76L401 137.76L401.5 135.26L402 132.76L402.5 129.76L403 126.76L403.5 123.76L404 119.76L404.5 115.26L405 110.76L405.5 106.76L406 101.76L406.5 95.7601L407 88.7601V66.7601L406.5 59.7601L406 54.7601L405.5 50.2601L405 46.7601L404.5 43.2601L404 40.7601L403.5 37.2601L403 34.7601L402.5 32.2601L402 29.7601L401.5 27.7601L401 25.7601L400.5 23.7601L400 21.7601L399.5 20.2601L399 18.7601L398.5 17.2601L398 15.7601L397.5 14.7601L397 13.7601L396.5 12.7601L396 11.7601L395.5 10.7601L395 9.76013L394.5 8.76013L394 7.76013L392 5.76013L391 4.76013L390 3.76013L389 2.76013L387.093 1.26013L385 0.5L383.093 0H382L380 0.760132Z" fill="url(#paint3_linear_2015_280)"/>
<path d="M140 647.84C143.173 647.84 145.787 648.96 147.84 651.2C150.08 653.253 151.2 655.867 151.2 659.04V782.52C151.2 785.693 150.08 788.4 147.84 790.64C145.787 792.88 143.173 794 140 794C136.64 794 133.933 792.88 131.88 790.64C129.827 788.4 128.8 785.693 128.8 782.52V755.92L134.12 755.36C134.12 759.467 132.72 763.947 129.92 768.8C127.12 773.653 123.293 778.227 118.44 782.52C113.587 786.627 107.8 790.08 101.08 792.88C94.5467 795.493 87.4533 796.8 79.8 796.8C67.1067 796.8 55.72 793.533 45.64 787C35.56 780.28 27.5333 771.227 21.56 759.84C15.7733 748.453 12.88 735.48 12.88 720.92C12.88 706.173 15.7733 693.2 21.56 682C27.5333 670.613 35.56 661.747 45.64 655.4C55.72 648.867 66.92 645.6 79.24 645.6C87.2667 645.6 94.7333 646.907 101.64 649.52C108.547 652.133 114.52 655.68 119.56 660.16C124.787 664.64 128.8 669.587 131.6 675C134.587 680.413 136.08 685.827 136.08 691.24L128.8 689.56V659.04C128.8 655.867 129.827 653.253 131.88 651.2C133.933 648.96 136.64 647.84 140 647.84ZM82.32 776.08C91.6533 776.08 99.8667 773.653 106.96 768.8C114.24 763.947 119.84 757.413 123.76 749.2C127.867 740.8 129.92 731.373 129.92 720.92C129.92 710.653 127.867 701.413 123.76 693.2C119.84 684.8 114.24 678.267 106.96 673.6C99.8667 668.747 91.6533 666.32 82.32 666.32C73.1733 666.32 64.96 668.653 57.68 673.32C50.5867 677.987 44.9867 684.427 40.88 692.64C36.7733 700.853 34.72 710.28 34.72 720.92C34.72 731.373 36.68 740.8 40.6 749.2C44.7067 757.413 50.3067 763.947 57.4 768.8C64.68 773.653 72.9867 776.08 82.32 776.08ZM231.352 782.52C231.352 785.693 230.232 788.4 227.992 790.64C225.752 792.88 223.046 794 219.872 794C216.699 794 214.086 792.88 212.032 790.64C209.979 788.4 208.952 785.693 208.952 782.52V598C208.952 594.827 209.979 592.213 212.032 590.16C214.272 587.92 216.979 586.8 220.152 586.8C223.512 586.8 226.219 587.92 228.272 590.16C230.326 592.213 231.352 594.827 231.352 598V782.52ZM310.358 782.52C310.358 785.693 309.238 788.4 306.998 790.64C304.945 792.88 302.331 794 299.158 794C295.798 794 293.091 792.88 291.038 790.64C288.985 788.4 287.958 785.693 287.958 782.52V658.2C287.958 655.027 288.985 652.413 291.038 650.36C293.278 648.12 295.985 647 299.158 647C302.331 647 304.945 648.12 306.998 650.36C309.238 652.413 310.358 655.027 310.358 658.2V782.52ZM299.158 628.24C294.491 628.24 291.038 627.307 288.798 625.44C286.558 623.573 285.438 620.68 285.438 616.76V612.84C285.438 608.92 286.651 606.027 289.078 604.16C291.505 602.293 294.958 601.36 299.438 601.36C303.918 601.36 307.278 602.293 309.518 604.16C311.758 606.027 312.878 608.92 312.878 612.84V616.76C312.878 620.68 311.665 623.573 309.238 625.44C306.998 627.307 303.638 628.24 299.158 628.24ZM375.795 794C372.622 794 369.915 792.88 367.675 790.64C365.622 788.4 364.595 785.693 364.595 782.52V660.44C364.595 657.267 365.622 654.653 367.675 652.6C369.915 650.36 372.622 649.24 375.795 649.24C379.155 649.24 381.862 650.36 383.915 652.6C385.968 654.653 386.995 657.267 386.995 660.44V697.4L383.635 691.52C384.755 685.733 386.715 680.133 389.515 674.72C392.502 669.12 396.235 664.173 400.715 659.88C405.195 655.4 410.328 651.947 416.115 649.52C421.902 646.907 428.248 645.6 435.155 645.6C439.262 645.6 442.995 646.627 446.355 648.68C449.902 650.547 451.675 653.253 451.675 656.8C451.675 660.72 450.648 663.613 448.595 665.48C446.542 667.347 444.208 668.28 441.595 668.28C439.168 668.28 436.835 667.813 434.595 666.88C432.355 665.76 429.555 665.2 426.195 665.2C421.528 665.2 416.862 666.507 412.195 669.12C407.715 671.547 403.515 675.093 399.595 679.76C395.862 684.427 392.782 689.747 390.355 695.72C388.115 701.507 386.995 707.76 386.995 714.48V782.52C386.995 785.693 385.875 788.4 383.635 790.64C381.582 792.88 378.968 794 375.795 794ZM512.538 782.52C512.538 785.693 511.418 788.4 509.178 790.64C507.124 792.88 504.511 794 501.338 794C497.978 794 495.271 792.88 493.218 790.64C491.164 788.4 490.138 785.693 490.138 782.52V658.2C490.138 655.027 491.164 652.413 493.218 650.36C495.458 648.12 498.164 647 501.338 647C504.511 647 507.124 648.12 509.178 650.36C511.418 652.413 512.538 655.027 512.538 658.2V782.52ZM501.338 628.24C496.671 628.24 493.218 627.307 490.978 625.44C488.738 623.573 487.618 620.68 487.618 616.76V612.84C487.618 608.92 488.831 606.027 491.258 604.16C493.684 602.293 497.138 601.36 501.618 601.36C506.098 601.36 509.458 602.293 511.698 604.16C513.938 606.027 515.058 608.92 515.058 612.84V616.76C515.058 620.68 513.844 623.573 511.418 625.44C509.178 627.307 505.818 628.24 501.338 628.24ZM704.255 721.2C704.255 735.76 700.988 748.733 694.455 760.12C688.108 771.507 679.428 780.467 668.415 787C657.588 793.533 645.361 796.8 631.735 796.8C618.108 796.8 605.788 793.533 594.775 787C583.761 780.467 574.988 771.507 568.455 760.12C562.108 748.733 558.935 735.76 558.935 721.2C558.935 706.64 562.108 693.667 568.455 682.28C574.988 670.893 583.761 661.933 594.775 655.4C605.788 648.867 618.108 645.6 631.735 645.6C645.361 645.6 657.588 648.867 668.415 655.4C679.428 661.933 688.108 670.893 694.455 682.28C700.988 693.667 704.255 706.64 704.255 721.2ZM681.855 721.2C681.855 710.373 679.615 700.853 675.135 692.64C670.841 684.427 664.868 677.987 657.215 673.32C649.748 668.653 641.255 666.32 631.735 666.32C622.215 666.32 613.628 668.653 605.975 673.32C598.508 677.987 592.535 684.427 588.055 692.64C583.575 700.853 581.335 710.373 581.335 721.2C581.335 731.84 583.575 741.267 588.055 749.48C592.535 757.693 598.508 764.227 605.975 769.08C613.628 773.747 622.215 776.08 631.735 776.08C641.255 776.08 649.748 773.747 657.215 769.08C664.868 764.227 670.841 757.693 675.135 749.48C679.615 741.267 681.855 731.84 681.855 721.2Z" fill="#FF6666"/>
<path d="M207.15 876.4C207.15 882.12 205.867 887.217 203.3 891.69C200.807 896.163 197.397 899.683 193.07 902.25C188.817 904.817 184.013 906.1 178.66 906.1C173.307 906.1 168.467 904.817 164.14 902.25C159.813 899.683 156.367 896.163 153.8 891.69C151.307 887.217 150.06 882.12 150.06 876.4C150.06 870.68 151.307 865.583 153.8 861.11C156.367 856.637 159.813 853.117 164.14 850.55C168.467 847.983 173.307 846.7 178.66 846.7C184.013 846.7 188.817 847.983 193.07 850.55C197.397 853.117 200.807 856.637 203.3 861.11C205.867 865.583 207.15 870.68 207.15 876.4ZM198.35 876.4C198.35 872.147 197.47 868.407 195.71 865.18C194.023 861.953 191.677 859.423 188.67 857.59C185.737 855.757 182.4 854.84 178.66 854.84C174.92 854.84 171.547 855.757 168.54 857.59C165.607 859.423 163.26 861.953 161.5 865.18C159.74 868.407 158.86 872.147 158.86 876.4C158.86 880.58 159.74 884.283 161.5 887.51C163.26 890.737 165.607 893.303 168.54 895.21C171.547 897.043 174.92 897.96 178.66 897.96C182.4 897.96 185.737 897.043 188.67 895.21C191.677 893.303 194.023 890.737 195.71 887.51C197.47 884.283 198.35 880.58 198.35 876.4ZM253.056 847.25C258.043 847.25 262.076 848.533 265.156 851.1C268.309 853.593 270.399 857.15 271.426 861.77H269.776L270.546 859.79C271.426 857.737 272.929 855.757 275.056 853.85C277.183 851.943 279.639 850.367 282.426 849.12C285.213 847.873 288.109 847.25 291.116 847.25C295.956 847.25 299.769 848.313 302.556 850.44C305.343 852.493 307.323 855.28 308.496 858.8C309.743 862.247 310.366 866.133 310.366 870.46V900.49C310.366 901.737 309.926 902.8 309.046 903.68C308.239 904.56 307.213 905 305.966 905C304.646 905 303.583 904.56 302.776 903.68C301.969 902.8 301.566 901.737 301.566 900.49V870.68C301.566 867.82 301.126 865.253 300.246 862.98C299.439 860.633 298.083 858.8 296.176 857.48C294.343 856.087 291.813 855.39 288.586 855.39C285.579 855.39 282.829 856.087 280.336 857.48C277.843 858.8 275.863 860.633 274.396 862.98C272.929 865.253 272.196 867.82 272.196 870.68V900.49C272.196 901.737 271.793 902.8 270.986 903.68C270.179 904.56 269.116 905 267.796 905C266.549 905 265.486 904.56 264.606 903.68C263.799 902.8 263.396 901.737 263.396 900.49V870.35C263.396 867.563 262.993 865.07 262.186 862.87C261.453 860.597 260.169 858.8 258.336 857.48C256.503 856.087 253.973 855.39 250.746 855.39C247.813 855.39 245.136 856.087 242.716 857.48C240.296 858.8 238.353 860.597 236.886 862.87C235.419 865.07 234.686 867.563 234.686 870.35V900.49C234.686 901.737 234.246 902.8 233.366 903.68C232.559 904.56 231.533 905 230.286 905C229.039 905 227.976 904.56 227.096 903.68C226.289 902.8 225.886 901.737 225.886 900.49V852.53C225.886 851.283 226.289 850.257 227.096 849.45C227.976 848.57 229.039 848.13 230.286 848.13C231.606 848.13 232.669 848.57 233.476 849.45C234.283 850.257 234.686 851.283 234.686 852.53V860.89L232.266 863.53C232.559 861.623 233.293 859.717 234.466 857.81C235.713 855.903 237.289 854.143 239.196 852.53C241.103 850.917 243.229 849.633 245.576 848.68C247.923 847.727 250.416 847.25 253.056 847.25ZM328.958 895.98C328.298 895.027 328.004 894.037 328.078 893.01C328.151 891.91 328.774 890.957 329.948 890.15C330.681 889.637 331.524 889.417 332.478 889.49C333.504 889.563 334.421 890.04 335.228 890.92C337.281 893.34 339.628 895.283 342.268 896.75C344.908 898.143 348.134 898.84 351.948 898.84C353.708 898.767 355.468 898.473 357.228 897.96C358.988 897.447 360.454 896.567 361.628 895.32C362.874 894 363.498 892.277 363.498 890.15C363.498 888.097 362.874 886.483 361.628 885.31C360.381 884.063 358.768 883.073 356.788 882.34C354.808 881.533 352.644 880.837 350.298 880.25C347.878 879.59 345.494 878.857 343.148 878.05C340.801 877.17 338.674 876.107 336.768 874.86C334.934 873.54 333.431 871.927 332.258 870.02C331.158 868.04 330.608 865.657 330.608 862.87C330.608 859.57 331.488 856.71 333.248 854.29C335.081 851.87 337.501 850 340.508 848.68C343.588 847.36 346.924 846.7 350.518 846.7C352.571 846.7 354.698 846.957 356.898 847.47C359.171 847.91 361.371 848.717 363.498 849.89C365.624 850.99 367.494 852.53 369.108 854.51C369.768 855.243 370.134 856.16 370.208 857.26C370.281 858.36 369.804 859.35 368.778 860.23C367.971 860.817 367.054 861.073 366.028 861C365.074 860.927 364.268 860.56 363.608 859.9C362.068 858.067 360.124 856.673 357.778 855.72C355.504 854.693 352.974 854.18 350.188 854.18C348.428 854.18 346.704 854.437 345.018 854.95C343.331 855.463 341.901 856.343 340.728 857.59C339.628 858.763 339.078 860.413 339.078 862.54C339.151 864.52 339.811 866.133 341.058 867.38C342.304 868.627 343.991 869.653 346.118 870.46C348.244 871.193 350.591 871.927 353.158 872.66C355.504 873.247 357.741 873.943 359.868 874.75C362.068 875.483 364.048 876.473 365.808 877.72C367.568 878.967 368.961 880.58 369.988 882.56C371.014 884.467 371.528 886.887 371.528 889.82C371.528 893.193 370.574 896.127 368.668 898.62C366.761 901.04 364.231 902.91 361.078 904.23C357.998 905.477 354.661 906.1 351.068 906.1C347.034 906.1 343.038 905.33 339.078 903.79C335.191 902.25 331.818 899.647 328.958 895.98ZM443.757 876.4C443.757 882.12 442.474 887.217 439.907 891.69C437.414 896.163 434.004 899.683 429.677 902.25C425.424 904.817 420.621 906.1 415.267 906.1C409.914 906.1 405.074 904.817 400.747 902.25C396.421 899.683 392.974 896.163 390.407 891.69C387.914 887.217 386.667 882.12 386.667 876.4C386.667 870.68 387.914 865.583 390.407 861.11C392.974 856.637 396.421 853.117 400.747 850.55C405.074 847.983 409.914 846.7 415.267 846.7C420.621 846.7 425.424 847.983 429.677 850.55C434.004 853.117 437.414 856.637 439.907 861.11C442.474 865.583 443.757 870.68 443.757 876.4ZM434.957 876.4C434.957 872.147 434.077 868.407 432.317 865.18C430.631 861.953 428.284 859.423 425.277 857.59C422.344 855.757 419.007 854.84 415.267 854.84C411.527 854.84 408.154 855.757 405.147 857.59C402.214 859.423 399.867 861.953 398.107 865.18C396.347 868.407 395.467 872.147 395.467 876.4C395.467 880.58 396.347 884.283 398.107 887.51C399.867 890.737 402.214 893.303 405.147 895.21C408.154 897.043 411.527 897.96 415.267 897.96C419.007 897.96 422.344 897.043 425.277 895.21C428.284 893.303 430.631 890.737 432.317 887.51C434.077 884.283 434.957 880.58 434.957 876.4ZM466.894 905C465.647 905 464.584 904.56 463.704 903.68C462.897 902.8 462.494 901.737 462.494 900.49V852.53C462.494 851.283 462.897 850.257 463.704 849.45C464.584 848.57 465.647 848.13 466.894 848.13C468.214 848.13 469.277 848.57 470.084 849.45C470.89 850.257 471.294 851.283 471.294 852.53V867.05L469.974 864.74C470.414 862.467 471.184 860.267 472.284 858.14C473.457 855.94 474.924 853.997 476.684 852.31C478.444 850.55 480.46 849.193 482.734 848.24C485.007 847.213 487.5 846.7 490.214 846.7C491.827 846.7 493.294 847.103 494.614 847.91C496.007 848.643 496.704 849.707 496.704 851.1C496.704 852.64 496.3 853.777 495.494 854.51C494.687 855.243 493.77 855.61 492.744 855.61C491.79 855.61 490.874 855.427 489.994 855.06C489.114 854.62 488.014 854.4 486.694 854.4C484.86 854.4 483.027 854.913 481.194 855.94C479.434 856.893 477.784 858.287 476.244 860.12C474.777 861.953 473.567 864.043 472.614 866.39C471.734 868.663 471.294 871.12 471.294 873.76V900.49C471.294 901.737 470.854 902.8 469.974 903.68C469.167 904.56 468.14 905 466.894 905ZM534.403 846.7C537.556 846.7 540.489 847.25 543.203 848.35C545.916 849.377 548.263 850.733 550.243 852.42C552.296 854.107 553.873 855.867 554.973 857.7C556.146 859.533 556.733 861.257 556.733 862.87L554.643 861.55V851.98C554.643 850.733 555.046 849.707 555.853 848.9C556.659 848.02 557.723 847.58 559.043 847.58C560.289 847.58 561.316 848.02 562.123 848.9C563.003 849.707 563.443 850.733 563.443 851.98V900.16C563.443 906.173 562.159 911.16 559.593 915.12C557.099 919.08 553.726 922.05 549.473 924.03C545.219 926.01 540.453 927 535.173 927C532.973 927 530.553 926.707 527.913 926.12C525.273 925.533 522.926 924.8 520.873 923.92C518.819 923.113 517.499 922.27 516.913 921.39C515.813 920.657 515.116 919.813 514.823 918.86C514.603 917.98 514.786 917.137 515.373 916.33C516.033 915.303 516.876 914.79 517.903 914.79C519.003 914.79 520.359 915.12 521.973 915.78C522.633 916 523.659 916.367 525.053 916.88C526.519 917.393 528.133 917.833 529.893 918.2C531.726 918.64 533.523 918.86 535.283 918.86C541.516 918.86 546.283 917.21 549.583 913.91C552.956 910.683 554.643 906.393 554.643 901.04V890.81L555.853 891.36C555.413 893.413 554.496 895.32 553.103 897.08C551.783 898.84 550.133 900.417 548.153 901.81C546.246 903.13 544.119 904.193 541.773 905C539.426 905.733 537.043 906.1 534.623 906.1C529.489 906.1 524.869 904.817 520.763 902.25C516.656 899.683 513.393 896.163 510.973 891.69C508.626 887.217 507.453 882.12 507.453 876.4C507.453 870.607 508.626 865.473 510.973 861C513.393 856.527 516.619 853.043 520.653 850.55C524.759 847.983 529.343 846.7 534.403 846.7ZM535.503 854.84C531.763 854.84 528.389 855.793 525.383 857.7C522.449 859.533 520.139 862.063 518.453 865.29C516.839 868.517 516.033 872.22 516.033 876.4C516.033 880.433 516.839 884.1 518.453 887.4C520.139 890.627 522.449 893.193 525.383 895.1C528.389 897.007 531.763 897.96 535.503 897.96C539.316 897.96 542.689 897.043 545.623 895.21C548.556 893.303 550.866 890.737 552.553 887.51C554.239 884.283 555.083 880.58 555.083 876.4C555.083 872.147 554.239 868.407 552.553 865.18C550.866 861.953 548.556 859.423 545.623 857.59C542.689 855.757 539.316 854.84 535.503 854.84Z" fill="#FE6767"/>
<defs>
<linearGradient id="paint0_linear_2015_280" x1="288.5" y1="435" x2="637.5" y2="578" gradientUnits="userSpaceOnUse">
<stop stop-color="#E06464"/>
<stop offset="0.416211" stop-color="#E66565"/>
<stop offset="1" stop-color="#F69B9B"/>
</linearGradient>
<linearGradient id="paint1_linear_2015_280" x1="236.5" y1="406.5" x2="131" y2="360" gradientUnits="userSpaceOnUse">
<stop stop-color="#E06464"/>
<stop offset="0.47706" stop-color="#E66565"/>
<stop offset="1" stop-color="#F69B9B"/>
</linearGradient>
<linearGradient id="paint2_linear_2015_280" x1="301" y1="399.5" x2="583" y2="330" gradientUnits="userSpaceOnUse">
<stop stop-color="#E06464"/>
<stop offset="0.415864" stop-color="#E66565"/>
<stop offset="1" stop-color="#F69B9B"/>
</linearGradient>
<linearGradient id="paint3_linear_2015_280" x1="382" y1="13" x2="265.5" y2="386" gradientUnits="userSpaceOnUse">
<stop stop-color="#F69B9B"/>
<stop offset="0.538154" stop-color="#E66565"/>
<stop offset="1" stop-color="#E06464"/>
</linearGradient>
</defs>
</svg>
