<svg width="55" height="33" viewBox="0 0 55 33" fill="none" xmlns="http://www.w3.org/2000/svg">
<g clip-path="url(#clip0_2233_670)">
<path d="M55 0H0V33H55V0Z" fill="#002395"/>
<path d="M14.575 0H42.075V33L14.575 0Z" fill="#FECB00"/>
<path d="M8.08943 2.16541L9.62502 -3.50586L11.1606 2.16541L7.14038 -1.33963H12.1097L8.08943 2.16541Z" fill="white"/>
<path d="M11.5269 6.29041L13.0625 0.619141L14.5981 6.29041L10.5779 2.78537H15.5472L11.5269 6.29041Z" fill="white"/>
<path d="M14.9644 10.4154L16.5 4.74414L18.0356 10.4154L14.0154 6.91037H18.9847L14.9644 10.4154Z" fill="white"/>
<path d="M18.4019 14.5404L19.9375 8.86914L21.4731 14.5404L17.4529 11.0354H22.4222L18.4019 14.5404Z" fill="white"/>
<path d="M21.8394 18.6654L23.375 12.9941L24.9106 18.6654L20.8904 15.1604H25.8597L21.8394 18.6654Z" fill="white"/>
<path d="M25.2769 22.7904L26.8125 17.1191L28.3481 22.7904L24.3279 19.2854H29.2972L25.2769 22.7904Z" fill="white"/>
<path d="M28.7144 26.9154L30.25 21.2441L31.7856 26.9154L27.7654 23.4104H32.7347L28.7144 26.9154Z" fill="white"/>
<path d="M32.1519 31.0404L33.6875 25.3691L35.2231 31.0404L31.2029 27.5354H36.1722L32.1519 31.0404Z" fill="white"/>
<path d="M35.5894 35.1654L37.125 29.4941L38.6606 35.1654L34.6404 31.6604H39.6097L35.5894 35.1654Z" fill="white"/>
</g>
<defs>
<clipPath id="clip0_2233_670">
<rect width="55" height="33" rx="6" fill="white"/>
</clipPath>
</defs>
</svg>
