<svg width="55" height="49" viewBox="0 0 55 49" fill="none" xmlns="http://www.w3.org/2000/svg">
<path d="M43.1906 41.0499C43.8379 41.1032 44.4927 41.1304 45.1538 41.1304C47.8956 41.1304 50.5279 40.6629 52.975 39.8033C52.9916 39.5957 53 39.3858 53 39.1739C53 34.8517 49.4871 31.3478 45.1538 31.3478C43.5123 31.3478 41.9886 31.8506 40.7289 32.7102M43.1906 41.0499C43.1907 41.0768 43.1907 41.1036 43.1907 41.1304C43.1907 41.7174 43.1583 42.2967 43.0952 42.8669C38.5006 45.4965 33.1755 47 27.4983 47C21.8211 47 16.496 45.4965 11.9013 42.8669C11.8382 42.2967 11.8059 41.7174 11.8059 41.1304C11.8059 41.1037 11.8059 41.0769 11.8061 41.0502M43.1906 41.0499C43.1751 37.9807 42.2739 35.1203 40.7289 32.7102M40.7289 32.7102C37.9411 28.3613 33.0573 25.4783 27.4983 25.4783C21.94 25.4783 17.0567 28.3606 14.2688 32.7086M14.2688 32.7086C13.0095 31.85 11.4867 31.3478 9.84622 31.3478C5.51287 31.3478 2 34.8517 2 39.1739C2 39.3858 2.00844 39.5957 2.025 39.8033C4.47207 40.6629 7.1044 41.1304 9.84622 41.1304C10.5062 41.1304 11.1598 41.1033 11.8061 41.0502M14.2688 32.7086C12.7231 35.1191 11.8215 37.9801 11.8061 41.0502M35.3445 9.82609C35.3445 14.1483 31.8316 17.6522 27.4983 17.6522C23.1649 17.6522 19.6521 14.1483 19.6521 9.82609C19.6521 5.50386 23.1649 2 27.4983 2C31.8316 2 35.3445 5.50386 35.3445 9.82609ZM51.0369 17.6522C51.0369 20.8938 48.4023 23.5217 45.1523 23.5217C41.9023 23.5217 39.2676 20.8938 39.2676 17.6522C39.2676 14.4105 41.9023 11.7826 45.1523 11.7826C48.4023 11.7826 51.0369 14.4105 51.0369 17.6522ZM15.729 17.6522C15.729 20.8938 13.0943 23.5217 9.8443 23.5217C6.59429 23.5217 3.95964 20.8938 3.95964 17.6522C3.95964 14.4105 6.59429 11.7826 9.8443 11.7826C13.0943 11.7826 15.729 14.4105 15.729 17.6522Z" stroke="white" stroke-width="2.5" stroke-linecap="round" stroke-linejoin="round"/>
</svg>
